<?xml version="1.0" encoding="UTF-8" standalone="no"?>
<!-- Created with Inkscape (http://www.inkscape.org/) -->

<svg
   width="296.37454mm"
   height="141.53171mm"
   viewBox="0 0 296.37454 141.53171"
   version="1.1"
   id="svg1"
   inkscape:export-filename="Left Cloud.svg"
   inkscape:export-xdpi="96"
   inkscape:export-ydpi="96"
   xmlns:inkscape="http://www.inkscape.org/namespaces/inkscape"
   xmlns:sodipodi="http://sodipodi.sourceforge.net/DTD/sodipodi-0.dtd"
   xmlns="http://www.w3.org/2000/svg"
   xmlns:svg="http://www.w3.org/2000/svg">
  <sodipodi:namedview
     id="namedview1"
     pagecolor="#ffffff"
     bordercolor="#000000"
     borderopacity="0.25"
     inkscape:showpageshadow="2"
     inkscape:pageopacity="0.0"
     inkscape:pagecheckerboard="0"
     inkscape:deskcolor="#d1d1d1"
     inkscape:document-units="mm">
    <inkscape:page
       x="0"
       y="0"
       width="296.37454"
       height="141.53171"
       id="page2"
       margin="0"
       bleed="0" />
  </sodipodi:namedview>
  <defs
     id="defs1" />
  <g
     inkscape:label="Layer 1"
     inkscape:groupmode="layer"
     id="layer1"
     transform="translate(14.55208,-67.733329)">
    <path
       id="path6"
       d="m 268.78097,184.78927 c -3.10092,1.18922 -6.4075,1.77836 -9.71338,1.77836 -4.56424,0 -9.12672,-1.12148 -13.14768,-3.32599 -0.87595,-0.48084 -1.19662,-1.5808 -0.71614,-2.45675 0.48013,-0.87418 1.57762,-1.1945 2.45569,-0.71614 6.01239,3.29883 13.42319,3.79942 19.8247,1.34268 3.73592,-1.43475 7.04709,-3.85304 9.61072,-6.90069 -1.08902,0.65546 -2.22532,1.23119 -3.40218,1.71027 -4.17372,1.7018 -8.13153,1.78329 -11.14249,0.23318 -2.50084,-1.28834 -4.06682,-3.45193 -5.58059,-5.54496 -0.83326,-1.15147 -1.62066,-2.23979 -2.53118,-3.14219 -3.14255,-3.11503 -8.85755,-4.19135 -12.35358,-0.82091 -0.4953,0.47589 -1.21567,0.63006 -1.8609,0.40181 -0.64629,-0.2286 -1.10737,-0.80433 -1.19027,-1.4852 -0.58244,-4.76638 -3.34998,-9.14752 -7.4034,-11.72069 -4.05412,-2.57457 -9.1955,-3.2131 -13.75833,-1.71485 -1.51201,0.49707 -2.95522,1.21426 -4.4831,1.97274 -1.25236,0.62159 -2.54776,1.26611 -3.91125,1.79246 -3.98956,1.54411 -7.73007,1.5367 -10.53183,-0.0261 -3.91583,-2.18228 -5.11916,-6.63398 -5.48746,-9.0932 -0.27022,-1.79952 -0.30409,-3.59198 -0.3369,-5.32447 -0.0268,-1.41676 -0.0519,-2.7559 -0.19685,-4.08199 -0.68827,-6.31508 -4.24991,-12.19906 -9.52571,-15.73813 -5.45676,-3.66183 -13.6084,-5.11281 -19.38126,-3.44628 -0.28575,0.0818 -0.57255,0.0829 -0.84455,0.03 -0.51858,1.10702 -1.0996,2.17911 -1.73919,3.21028 5.98558,-0.84173 12.22269,0.53164 17.27729,3.92642 0.82903,0.55703 1.04987,1.68063 0.49283,2.50966 -0.34854,0.5207 -0.92075,0.8008 -1.50354,0.8008 -0.34678,0 -0.69708,-0.0988 -1.00682,-0.30727 -5.14668,-3.45651 -12.02338,-4.46828 -17.94581,-2.64406 -0.20108,0.0614 -0.40358,0.0787 -0.60184,0.0709 -1.0802,1.18428 -2.25495,2.27648 -3.52037,3.25614 -4.78084,3.70417 -10.75796,5.6134 -16.62642,5.6134 -4.27813,0.001 -8.49771,-1.01423 -12.15813,-3.08574 -5.2137,-2.95275 -9.07133,-7.9181 -10.31805,-13.28032 -1.39311,-5.99229 0.48931,-12.35675 4.79567,-16.2172 4.62985,-4.150784 11.86709,-4.83482 16.8342,-1.58327 5.34106,3.49215 7.15998,11.13226 3.89184,16.34843 -0.53022,0.84561 -1.64535,1.10102 -2.49343,0.57221 -0.84667,-0.53093 -1.10278,-1.64747 -0.5722,-2.49449 2.22461,-3.54965 0.88688,-8.98384 -2.8067,-11.3979 -3.57964,-2.34386 -9.04382,-1.79388 -12.4393,1.24954 -3.28648,2.94534 -4.76815,8.05109 -3.68618,12.70282 1.02165,4.3942 4.22804,8.48819 8.57744,10.95058 7.44608,4.21887 17.63889,3.2967 24.78617,-2.23767 6.8513,-5.30684 10.73538,-14.34924 10.13601,-23.59943 -0.56162,-8.664573 -4.93571,-17.240954 -12.00009,-23.528866 -6.50381,-5.788378 -15.05091,-9.600848 -24.71702,-11.024659 -11.71787,-1.731433 -23.23924,0.383822 -32.446034,5.940425 -10.380487,6.264276 -16.661696,16.325851 -17.232138,27.60522 -0.03775,0.74048 -0.524227,1.38359 -1.227314,1.62136 -0.70485,0.23919 -1.480255,0.0226 -1.960386,-0.54398 -2.738614,-3.236384 -6.721475,-5.410554 -10.925881,-5.96759 -3.681942,-0.485422 -7.525809,0.268464 -10.767484,2.085622 -0.09454,0.22472 -0.234245,0.426156 -0.407106,0.594431 0.340431,1.052337 0.616656,2.121257 0.829381,3.199337 3.515078,-1.34937 7.484534,-1.52823 11.094509,-0.46637 0.958497,0.28258 1.506714,1.28835 1.224844,2.2472 -0.281516,0.95849 -1.287286,1.50283 -2.246136,1.22449 -3.140428,-0.92534 -6.627989,-0.65899 -9.599437,0.72002 0.06668,1.16381 0.05927,2.32798 -0.02963,3.48333 1.86937,-0.46108 3.854098,-0.46743 5.715353,0.012 0.966964,0.24977 1.548695,1.23543 1.299634,2.20345 -0.25012,0.96697 -1.235781,1.55575 -2.203803,1.29928 -1.807634,-0.46531 -3.782484,-0.26 -5.465939,0.54645 -0.226484,0.90911 -0.504825,1.80517 -0.839964,2.68288 -3.927123,10.28171 -15.530337,16.86031 -25.870255,14.67944 -5.269795,-1.11443 -9.662231,-4.29437 -11.749617,-8.50583 -2.457803,-4.9597 -1.345142,-11.15554 2.588683,-14.4145 2.175228,-1.80058 5.243337,-2.5213 8.208787,-1.93252 2.701925,0.5394 4.919486,2.11385 6.086123,4.3233 0.466372,0.88335 0.128411,1.97767 -0.755651,2.44404 -0.883355,0.46849 -1.977319,0.12947 -2.444397,-0.75494 -0.654756,-1.24143 -1.964972,-2.1389 -3.593395,-2.4638 -1.877836,-0.37465 -3.868914,0.0741 -5.193594,1.17051 -2.632428,2.18017 -3.359503,6.58248 -1.654881,10.02136 1.600553,3.22827 5.06095,5.68502 9.256537,6.5719 8.665281,1.83021 18.422056,-3.74156 21.741695,-12.42977 C 50.472895,107.1136 47.790725,96.748282 40.739403,90.312204 34.045797,84.20315 23.991982,81.835659 14.511079,84.134712 5.7265589,86.26302 -2.412025,92.277529 -7.8186975,100.63836 c -7.2689865,11.24056 -8.7728785,25.50407 -3.9243005,37.2237 5.0644783,12.24034 16.9601457,20.90844 29.601938,21.57025 0.570089,0.0296 1.058686,0.32526 1.368073,0.75565 1.909939,-3.83011 4.5339,-7.27287 7.847189,-10.03406 0.76835,-0.63923 1.908528,-0.53551 2.548114,0.23213 0.639586,0.76694 0.535869,1.90817 -0.231422,2.54741 -11.001729,9.16622 -13.495868,27.58652 -5.445831,40.2209 7.768873,12.19221 24.223487,18.59086 39.124469,15.21425 14.136512,-3.20231 26.495024,-14.49317 31.48436,-28.76515 0.225425,-0.64523 0.79622,-1.10843 1.473906,-1.19662 0.680156,-0.0917 1.347964,0.21202 1.731433,0.77964 5.944659,8.77534 17.339379,13.25562 27.089099,10.63977 10.11908,-2.70756 17.39936,-13.03513 16.22884,-23.02263 -0.62089,-5.29025 -3.43853,-10.0517 -7.53816,-12.73704 -4.27778,-2.80317 -9.9702,-3.14113 -14.1672,-0.83961 -4.35116,2.38478 -6.85976,7.63976 -5.83494,12.22481 0.90663,4.0573 4.68488,7.18538 8.41551,6.97935 1.86373,-0.10371 3.75497,-1.24953 4.93571,-2.98908 1.03012,-1.51589 1.34021,-3.22615 0.85232,-4.68983 -0.31645,-0.94791 0.19614,-1.97273 1.14335,-2.28847 0.95215,-0.31679 1.97273,0.19791 2.28847,1.14371 0.84808,2.54282 0.37747,5.41055 -1.29082,7.86729 -1.82774,2.6924 -4.71628,4.39985 -7.72724,4.56953 -5.50298,0.29316 -10.85039,-3.99838 -12.14826,-9.80334 -1.36278,-6.09741 1.91629,-13.0563 7.62635,-16.18685 5.33647,-2.92665 12.52362,-2.52977 17.88937,0.98566 4.98475,3.26601 8.40493,9.00042 9.14858,15.3423 0.53199,4.5392 -0.42263,9.13377 -2.47191,13.24469 0.13405,0.0684 0.26423,0.14852 0.38206,0.25365 8.11424,7.21113 19.42641,11.03418 30.2454,10.22491 10.75126,-0.80327 21.3607,-6.16408 28.38133,-14.34253 0.43462,-0.50412 1.11231,-0.72884 1.76318,-0.58738 0.65123,0.14464 1.17052,0.63465 1.35079,1.27635 1.72755,6.14328 7.32966,11.16154 13.62392,12.20506 6.45548,1.07068 13.18543,-1.95863 16.36254,-7.36777 0.28858,-0.49142 0.79128,-0.81738 1.35785,-0.88124 0.56232,-0.0705 1.12888,0.14253 1.51941,0.55704 7.81191,8.30192 21.01956,10.92482 31.40886,6.22794 5.66385,-2.5587 10.28771,-7.25876 13.22882,-12.99246 -3.12138,4.7558 -7.70714,8.54005 -13.04149,10.58898 z m -224.748034,2.81588 c 0.691092,-0.72461 1.836914,-0.7493 2.557639,-0.06 2.657123,2.53189 6.539795,3.66007 10.142009,2.94182 0.979311,-0.20285 1.93287,0.44062 2.128309,1.41922 0.195791,0.97967 -0.439209,1.93252 -1.419225,2.12831 -0.945092,0.18944 -1.905,0.28117 -2.864203,0.28117 -3.849512,0 -7.684912,-1.48379 -10.483851,-4.15361 -0.722842,-0.68933 -0.750006,-1.83374 -0.06068,-2.55693 z m 13.795376,14.36479 c -0.980369,0.11546 -1.966031,0.17198 -2.951692,0.17198 -8.810978,0 -17.620192,-4.50589 -22.607412,-11.78334 -0.564797,-0.82339 -0.354542,-1.9491 0.469194,-2.5146 0.825148,-0.56621 1.950509,-0.3556 2.515306,0.4699 4.805186,7.01146 13.70577,11.05323 22.151976,10.06404 0.987073,-0.12488 1.890889,0.59232 2.008012,1.58503 0.116769,0.99166 -0.59302,1.8904 -1.585384,2.00699 z M 180.39778,129.77075 c 0.57468,-0.81597 1.70427,-1.01282 2.52025,-0.43779 1.70074,1.19768 2.84656,3.06422 3.14395,5.12198 0.14288,0.98919 -0.54257,1.90676 -1.53176,2.04893 -0.0871,0.0134 -0.17497,0.019 -0.2607,0.019 -0.88441,0 -1.6577,-0.64911 -1.78788,-1.54975 -0.15381,-1.06257 -0.76905,-2.06481 -1.64606,-2.68182 -0.81703,-0.57467 -1.01318,-1.70427 -0.4378,-2.5206 z m 6.69043,50.43453 c -3.85445,3.69005 -9.12565,5.73334 -14.4272,5.73334 -1.38147,0 -2.76542,-0.13899 -4.12679,-0.42298 -0.97755,-0.20496 -1.60479,-1.16346 -1.40018,-2.14101 0.20426,-0.9786 1.15923,-1.61007 2.14101,-1.40158 5.43172,1.14018 11.30124,-0.54399 15.31162,-4.38221 0.71966,-0.68897 1.8669,-0.66675 2.55764,0.0565 0.69074,0.72178 0.66604,1.86654 -0.0561,2.55799"
       style="fill:#f7b801;fill-opacity:1;fill-rule:nonzero;stroke:none;stroke-width:0.0352778" />
  </g>
</svg>
