<?xml version="1.0" encoding="UTF-8" standalone="no"?>
<!-- Created with Inkscape (http://www.inkscape.org/) -->

<svg
   width="233.1301mm"
   height="154.15842mm"
   viewBox="0 0 233.1301 154.15842"
   version="1.1"
   id="svg1"
   xmlns:inkscape="http://www.inkscape.org/namespaces/inkscape"
   xmlns:sodipodi="http://sodipodi.sourceforge.net/DTD/sodipodi-0.dtd"
   xmlns="http://www.w3.org/2000/svg"
   xmlns:svg="http://www.w3.org/2000/svg">
  <sodipodi:namedview
     id="namedview1"
     pagecolor="#ffffff"
     bordercolor="#000000"
     borderopacity="0.25"
     inkscape:showpageshadow="2"
     inkscape:pageopacity="0.0"
     inkscape:pagecheckerboard="0"
     inkscape:deskcolor="#d1d1d1"
     inkscape:document-units="mm">
    <inkscape:page
       x="0"
       y="0"
       width="233.1301"
       height="154.15842"
       id="page2"
       margin="0"
       bleed="0" />
  </sodipodi:namedview>
  <defs
     id="defs1" />
  <g
     inkscape:label="Layer 1"
     inkscape:groupmode="layer"
     id="layer1"
     transform="translate(-36.512485,-30.426589)">
    <path
       id="path11"
       d="m 53.117328,111.16239 c 13.392504,7.60236 32.047394,4.13455 41.889894,-7.68703 -1.778,-2.40595 -3.083278,-5.157612 -3.739444,-8.08214 -0.218723,-0.973667 0.391583,-1.940278 1.368778,-2.162528 0.977194,-0.211667 1.943805,0.395111 2.162527,1.368778 1.474612,6.55814 6.833307,12.0897 13.338527,13.76892 6.57578,1.69333 13.85359,-0.62795 17.70239,-5.64798 0.50095,-0.65263 1.37936,-0.88194 2.13784,-0.56797 0.75847,0.32103 1.2065,1.11125 1.09008,1.92617 -2.09197,14.56972 6.94267,30.34947 20.56342,35.92336 13.62428,5.57742 31.12558,0.65264 39.84978,-11.20069 4.40972,-5.99723 6.4523,-13.208 5.60211,-19.78025 -0.92075,-7.09789 -5.39397,-13.409088 -11.39472,-16.079616 -6.30767,-2.804583 -14.21695,-1.213555 -18.40442,3.704167 -4.31447,5.065889 -3.97228,13.521969 0.72319,17.741199 2.5012,2.25072 6.78392,3.36197 9.61673,1.3335 1.27705,-0.9137 1.98966,-2.7552 1.778,-4.57553 -0.0811,-0.66675 -0.42334,-2.28247 -1.905,-2.88925 -0.92428,-0.37747 -1.36878,-1.43228 -0.99131,-2.35656 0.37747,-0.9278 1.43581,-1.3723 2.36008,-0.9913 2.26484,0.92427 3.81,3.09739 4.1275,5.81378 0.37042,3.13619 -0.91016,6.25475 -3.25966,7.94102 -4.47675,3.20675 -10.6292,1.57692 -14.14639,-1.58397 -6.17361,-5.54919 -6.6675,-16.19603 -1.05481,-22.778861 5.2705,-6.187723 14.78492,-8.149167 22.62364,-4.663723 7.13317,3.171473 12.43542,10.597444 13.51492,18.919474 0.97014,7.48594 -1.31939,15.64922 -6.27592,22.38728 -7.04497,9.57792 -18.79953,15.02833 -30.5435,15.02833 -4.62844,0 -9.25336,-0.84666 -13.589,-2.62114 -6.39586,-2.61408 -11.82159,-7.11552 -15.80797,-12.65766 -0.8502,0.41627 -1.65806,0.91016 -2.413,1.47108 1.67922,4.15925 5.03413,7.66939 9.1193,9.50383 0.9137,0.40923 1.31939,1.48167 0.91017,2.39184 -0.29986,0.67028 -0.95956,1.06891 -1.651,1.06891 -0.24695,0 -0.49742,-0.0529 -0.73731,-0.15875 -4.50144,-2.01788 -8.25853,-5.72558 -10.42105,-10.17058 -0.72673,0.86078 -1.36525,1.79564 -1.90853,2.78342 1.27,2.85044 3.56658,5.28461 6.34647,6.7063 0.889,0.45509 1.24178,1.54517 0.7867,2.43417 -0.3175,0.62442 -0.9525,0.98425 -1.6122,0.98425 -0.27517,0 -0.55739,-0.0635 -0.82197,-0.19756 -2.52236,-1.29116 -4.73075,-3.24202 -6.37117,-5.57741 -0.39864,1.72155 -0.51858,3.50661 -0.31397,5.27403 0.0882,0.74788 -0.29633,1.47108 -0.96661,1.8168 -0.66675,0.34572 -1.48167,0.23636 -2.03906,-0.26458 -5.18583,-4.66725 -12.87286,-6.45936 -19.58975,-4.56847 -5.242276,1.47813 -9.366249,4.93888 -11.204221,9.0805 3.915833,-2.3107 8.607778,-3.34081 13.109221,-2.76578 6.24064,0.8008 12.05795,4.68841 15.18003,10.15294 1.06539,1.85914 1.80622,3.8347 2.52236,5.74675 0.71261,1.89442 1.38289,3.67948 2.32481,5.30931 3.33375,5.75028 10.50925,9.11931 17.0568,8.00806 6.40292,-1.08303 12.18142,-6.42409 13.44084,-12.42131 0.15169,-0.71261 0.71261,-1.26647 1.42875,-1.40406 0.71967,-0.13758 1.44286,0.16581 1.84855,0.77259 6.67809,10.01183 17.82234,16.64758 29.80973,17.75178 11.98739,1.10419 24.15469,-3.3902 32.55081,-12.01209 5.05883,-5.19642 8.22677,-11.43705 8.91822,-17.57186 0.76905,-6.84389 -1.65453,-13.61017 -6.32884,-17.653 -4.93888,-4.27214 -12.49891,-5.06236 -17.58597,-1.82739 -2.60703,1.65453 -4.58258,4.59317 -5.28108,7.85989 -0.64206,3.00567 -0.17286,5.90903 1.32291,8.17386 1.86973,2.83281 5.95842,4.79778 9.07345,3.19969 1.36525,-0.6985 2.30364,-2.47297 2.27894,-4.30741 -0.0106,-0.68792 -0.18697,-2.36009 -1.64394,-3.05506 -0.90311,-0.43039 -1.28411,-1.51341 -0.85019,-2.413 0.43038,-0.89958 1.50988,-1.28058 2.40947,-0.85019 2.27894,1.09008 3.66536,3.43253 3.70416,6.26886 0.0423,3.25967 -1.62277,6.23358 -4.24744,7.57767 -4.99181,2.56116 -11.02078,-0.30692 -13.74422,-4.42737 -2.032,-3.08327 -2.68817,-6.9603 -1.8415,-10.922 0.91016,-4.26155 3.41841,-7.96219 6.87916,-10.16 6.48759,-4.12044 15.69509,-3.22086 21.89339,2.14489 2.65995,2.30364 4.70959,5.33047 6.02545,8.73478 0.007,0 0.0106,-0.004 0.0176,-0.004 6.03955,-1.15005 11.60639,-4.93889 14.89075,-10.1353 0.86078,-1.36525 1.5628,-2.82928 2.10961,-4.35681 -1.85914,0.42333 -3.76061,0.63853 -5.66561,0.63853 -1.59456,0 -3.19264,-0.1517 -4.7625,-0.45156 -0.98072,-0.18697 -1.62278,-1.13594 -1.43581,-2.11666 0.18697,-0.98073 1.13947,-1.61925 2.11667,-1.43581 3.46428,0.66675 7.08025,0.4692 10.45281,-0.56092 0.10936,-0.0353 0.21872,-0.0564 0.33161,-0.067 0.15875,-0.95603 0.25752,-1.91912 0.29633,-2.88573 -2.33539,0.88195 -4.81894,1.3335 -7.30603,1.3335 -2.96333,0 -5.92314,-0.62794 -8.636,-1.8803 -0.90664,-0.41981 -1.30175,-1.49578 -0.88194,-2.40242 0.4198,-0.90664 1.49225,-1.30175 2.39889,-0.88194 4.41325,2.04258 9.84602,2.02494 14.25927,-0.0141 -0.0952,-0.74437 -0.2293,-1.48167 -0.40216,-2.20839 -2.17664,0.49036 -4.41325,0.74083 -6.65339,0.74083 -5.0165,0 -10.02947,-1.23825 -14.35806,-3.72533 -6.01486,-3.4537 -10.39636,-8.97114 -12.02619,-15.141227 -1.77448,-6.713361 -0.0317,-14.121695 4.43794,-18.880668 4.82953,-5.129389 12.7882,-6.872111 18.91947,-4.138083 6.61459,2.945695 10.29053,10.756195 8.19151,17.409584 -1.36525,4.325056 -5.77498,8.392584 -10.79853,7.704667 -2.69875,-0.370416 -5.09411,-2.427111 -6.10306,-5.235222 -0.87842,-2.44475 -0.45861,-4.92125 1.11478,-6.632223 0.67733,-0.733778 1.82386,-0.783166 2.55764,-0.102305 0.73378,0.673805 0.77964,1.820333 0.1023,2.554111 -0.9278,1.008944 -0.56797,2.405945 -0.36689,2.956278 0.53975,1.509889 1.85209,2.691695 3.18559,2.875139 3.08328,0.426861 5.96194,-2.377722 6.858,-5.210528 1.53811,-4.868334 -1.30881,-10.830279 -6.21595,-13.013973 -4.77308,-2.12725 -10.99961,-0.733778 -14.80961,3.312583 -3.63714,3.866445 -5.04119,9.941279 -3.57717,15.476363 1.38642,5.242274 5.15056,9.951864 10.32934,12.929304 7.87047,4.51909 18.32328,4.318 26.01031,-0.49741 6.94266,-4.34623 12.11791,-12.544783 14.19577,-22.493117 2.60703,-12.481279 0.2787,-25.590502 -6.39233,-35.969225 -6.83331,-10.629195 -18.15747,-18.041057 -30.29656,-19.826112 -12.40366,-1.823861 -25.48819,2.398889 -34.13478,11.020778 -0.68439,0.680861 -1.78152,0.705556 -2.49414,0.05644 -6.17361,-5.623278 -14.55208,-8.491362 -22.99758,-7.874001 -7.74347,0.564445 -15.15533,4.021667 -20.59164,9.546167 6.25122,5.00239 10.07533,12.819946 9.53911,20.443474 -0.74083,10.523362 -9.88131,19.413362 -19.96369,19.41689 0,0 0,0 0,0 -5.81378,0 -11.11251,-2.935111 -13.50434,-7.475361 -1.38289,-2.624667 -1.64394,-5.95489 -0.6985,-8.904112 0.8502,-2.659945 2.57528,-4.758973 4.85422,-5.905501 2.71286,-1.36525 6.14539,-1.075972 8.95703,0.765528 2.53647,1.658056 3.9617,4.258028 3.81353,6.956779 -0.0564,0.998361 -0.90664,1.753305 -1.905,1.707444 -0.99836,-0.05644 -1.76389,-0.906639 -1.70744,-1.905 0.10936,-2.007306 -1.48873,-3.280834 -2.1837,-3.732389 -1.70392,-1.114778 -3.80294,-1.3335 -5.34811,-0.560917 -1.40406,0.709084 -2.48003,2.049639 -3.03389,3.77825 -0.65617,2.042584 -0.48683,4.328584 0.45508,6.11364 1.74273,3.316111 5.88434,5.542139 10.30112,5.542139 0,0 0,0 0,0 8.11036,0 15.75152,-7.500056 16.35477,-16.05139 0.57856,-8.230306 -4.90008,-16.764001 -13.02455,-20.288251 -7.66234,-3.323167 -17.272,-2.391834 -25.06839,2.427111 -6.0572,3.7465 -10.79853,9.507362 -15.38464,15.074195 -1.20297,1.4605 -2.40242,2.917473 -3.62303,4.342695 -7.821084,9.112251 -15.490474,14.732001 -24.140585,17.681223 -0.673806,0.229306 -1.421695,0.04233 -1.908528,-0.479777 -0.483306,-0.522112 -0.617361,-1.280584 -0.338667,-1.936751 0.511528,-1.2065 0.437444,-2.681111 -0.201083,-4.039305 -0.638528,-1.361723 -1.725084,-2.360084 -2.980973,-2.737556 -3.044472,-0.92075 -6.406445,1.213556 -8.138584,2.564695 -0.807861,0.631472 -1.580444,1.305277 -2.398889,2.017889 -1.929694,1.68275 -3.922889,3.418416 -6.394803,4.550833 -4.21005,1.933223 -9.323212,1.700389 -13.34382,-0.599722 -1.680986,-0.959556 -3.039886,-2.197806 -4.038248,-3.630084 -1.114072,12.689418 5.323065,26.094981 16.480368,32.430871 z M 239.57204,49.091134 c -0.30339,0.66675 -0.95956,1.061861 -1.64748,1.061861 -0.25047,0 -0.50447,-0.05292 -0.74436,-0.162278 -2.667,-1.213556 -5.72558,-1.591028 -8.60425,-1.086556 -0.98777,0.176389 -1.92264,-0.479777 -2.0955,-1.464027 -0.17639,-0.980723 0.47978,-1.922639 1.4605,-2.095501 3.60186,-0.642055 7.40834,-0.15875 10.7315,1.351139 0.9137,0.41275 1.31234,1.485195 0.89959,2.395362 z M 219.25909,38.416077 c 9.51795,-3.848805 21.03261,-1.816805 28.65261,5.055306 0.74437,0.670278 0.80081,1.816806 0.13406,2.557639 -0.35983,0.395111 -0.85019,0.596195 -1.34408,0.596195 -0.43392,0 -0.86784,-0.151695 -1.21356,-0.465667 -6.61458,-5.965473 -16.60878,-7.729362 -24.87436,-4.388556 -0.92428,0.370417 -1.97909,-0.07408 -2.35303,-0.998361 -0.37394,-0.927806 0.0706,-1.982611 0.99836,-2.356556 z M 58.064331,97.023053 c 0.567972,-0.818444 1.693334,-1.026583 2.515306,-0.458611 1.753306,1.210028 3.894667,1.880306 6.028972,1.880306 0.998362,0.0035 1.806223,0.811389 1.806223,1.813282 0,0.99836 -0.811389,1.80622 -1.80975,1.80622 0,0 0,0 0,0 -2.861028,-0.004 -5.729112,-0.89959 -8.08214,-2.522363 -0.821972,-0.567972 -1.026583,-1.696861 -0.458611,-2.518834 z m -8.309681,2.903362 c 0.735189,-0.680862 1.879953,-0.627945 2.556228,0.105835 4.765675,5.1823 12.576176,7.57767 19.423593,5.96194 0.966611,-0.2293 1.947333,0.37395 2.176639,1.34761 0.229306,0.97014 -0.373945,1.94381 -1.347611,2.17312 -1.739195,0.40922 -3.513667,0.6103 -5.288139,0.6103 -6.586362,0 -13.126862,-2.75167 -17.627249,-7.64469 -0.676628,-0.73378 -0.628297,-1.88031 0.106539,-2.554115"
       style="fill:#f7b801;fill-opacity:1;fill-rule:nonzero;stroke:none;stroke-width:0.0352778" />
  </g>
</svg>
